P3
10 10
255
254
254
254
251
251
251
246
246
246
242
242
242
235
235
235
229
229
229
223
223
223
221
221
221
221
221
221
223
223
223
252
252
252
248
248
248
243
243
243
236
236
236
227
227
227
221
221
221
215
215
215
211
211
211
211
211
211
215
215
215
252
252
252
247
247
247
239
239
239
231
231
231
222
222
222
212
212
212
204
204
204
201
201
201
201
201
201
204
204
204
250
250
250
244
244
244
236
236
236
225
225
225
215
215
215
204
204
204
196
196
196
192
192
192
192
192
192
196
196
196
250
250
250
243
243
243
233
233
233
222
222
222
209
209
209
197
197
197
188
188
188
183
183
183
183
183
183
188
188
188
249
249
249
241
241
241
231
231
231
218
218
218
204
204
204
190
190
190
184
184
184
177
177
177
177
177
177
184
184
184
249
249
249
241
241
241
229
229
229
217
217
217
200
200
200
187
187
187
177
177
177
171
171
171
171
171
171
178
178
178
249
249
249
240
240
240
227
227
227
214
214
214
198
198
198
185
185
185
173
173
173
168
168
168
169
169
169
175
175
175
248
248
248
238
238
238
225
225
225
211
211
211
196
196
196
180
180
180
171
171
171
167
167
167
167
167
167
173
173
173
248
248
248
236
236
236
222
222
222
208
208
208
192
192
192
178
178
178
168
168
168
164
164
164
166
166
166
173
173
173
